<mxfile host="app.diagrams.net" modified="2023-06-09T06:54:22.214Z" agent="Mozilla/5.0 (Macintosh; Intel Mac OS X 10_15_7) AppleWebKit/537.36 (KHTML, like Gecko) Chrome/113.0.0.0 Safari/537.36" version="21.3.6" etag="_j7AdHVXEyn_G-oS2Rzi" type="github">
  <diagram name="第 1 页" id="P698hnw3yA9ZFxlrzjsI">
    <mxGraphModel>
      <root>
        <mxCell id="0" />
        <mxCell id="1" parent="0" />
      </root>
    </mxGraphModel>
  </diagram>
</mxfile>
